PathFileType	4	(X/Y/Z)	maxSprint.trc
DataRate	CameraRate	NumFrames	NumMarkers	Units	OrigDataRate	OrigDataStartFrame	OrigNumFrames
250.000000	250.000000	5	38	mm	250.000000	329	377
Frame#	Time	RASI			LASI			LAIC			RTH1			RTH2			RTH3			RTB1			RTB2			RTB3			RMT1			RMT5			LTH1			LTH2			LTH3			LTB1			LTB3			CLAV			STRN			RACR			LACR			LMT5			RPSI			LTB2			LMT1			RAIC			LCAL			T10			C7			LPSI			RCAL			*30			*31			*32			*33			RHJC			LHJC			MTOR			MPEL			
		X1	Y1	Z1	X2	Y2	Z2	X3	Y3	Z3	X4	Y4	Z4	X5	Y5	Z5	X6	Y6	Z6	X7	Y7	Z7	X8	Y8	Z8	X9	Y9	Z9	X10	Y10	Z10	X11	Y11	Z11	X12	Y12	Z12	X13	Y13	Z13	X14	Y14	Z14	X15	Y15	Z15	X16	Y16	Z16	X17	Y17	Z17	X18	Y18	Z18	X19	Y19	Z19	X20	Y20	Z20	X21	Y21	Z21	X22	Y22	Z22	X23	Y23	Z23	X24	Y24	Z24	X25	Y25	Z25	X26	Y26	Z26	X27	Y27	Z27	X28	Y28	Z28	X29	Y29	Z29	X30	Y30	Z30	X31	Y31	Z31	X32	Y32	Z32	X33	Y33	Z33	X34	Y34	Z34	X35	Y35	Z35	X36	Y36	Z36	X37	Y37	Z37	X38	Y38	Z38	

330	1.316	4073.581054687502	1008.320251464844	235.1496887207032	4043.607421875002	989.4753417968755	32.86922073364259	4013.421875000002	1068.834228515625	3.043352365493776	4133.665039062502	883.4558105468755	328.9282836914064	4235.544921875002	882.691040039063	305.147918701172	4283.269042968752	788.5116577148442	305.1002502441407	4337.349609375002	596.1027832031252	210.5647583007814	4319.660156250002	530.4697265625002	263.1536254882814	4275.628906250002	472.0652465820315	219.8686828613282	4273.937988281252	212.5677490234376	215.5356903076173	4262.297851562502	223.558807373047	324.1137084960939	3851.419677734377	709.8876953125002	10.26948356628418	3858.481445312502	808.5578613281255	-8.471172332763675	3757.729980468752	672.938659667969	34.99228668212892	3616.096923828127	449.8791809082034	146.4993896484376	3498.333984375002	378.1426391601564	159.5223083496094	4097.973632812502	1448.14306640625	167.0776367187501	4142.428710937502	1256.1259765625	176.2847900390626	3963.826416015627	1486.051391601563	338.404266357422	4017.818603515627	1474.633422851563	-64.52478790283206	3280.688232421877	147.4526367187501	108.3360824584962	3898.153808593752	1075.560424804688	204.4975891113282	3562.245605468752	394.0765686035159	106.6570663452149	3298.055664062502	157.1061401367188	213.7218475341798	4008.493408203127	1090.829223632813	304.4332580566407	3287.637695312502	374.1224670410157	152.0449981689454	3902.039794921877	1246.266357421875	126.233741760254	3963.094726562502	1507.400390625	138.5009765625001	3891.898437500002	1067.329833984375	107.8600311279297	4077.698486328127	311.9154052734376	221.5080108642579	4332.444824218752	738.0796508789065	286.296844482422	4146.647460937502	336.8382263183595	277.9655761718751	3333.686279296877	322.5001525878907	101.1260528564454	3708.834228515627	566.4989013671877	56.64783096313479	4005.312468426714	966.2507497288822	213.7511486539365	3985.527739759849	953.8117695470454	80.23165841511805	4010.678344726564	1479.057067871094	144.86452293396	3976.810180664064	1035.171463012696	145.0941324234009	
331	1.32	4099.426757812502	1008.598327636719	234.5814971923829	4070.745361328127	990.9035034179692	31.96666717529298	4040.618164062502	1070.486572265625	2.172251462936402	4156.949707031252	882.073364257813	328.5789794921876	4259.124511718752	880.412719726563	307.0130004882814	4305.510253906252	785.4102172851567	304.8125305175782	4369.291992187502	593.0598754882815	212.1303100585939	4354.187011718752	525.0051269531252	261.6121826171876	4313.786132812502	464.9286804199221	217.7946929931642	4329.383300781252	206.4304962158204	207.4176635742189	4317.317871093752	213.7687225341798	316.680877685547	3881.340332031252	709.6702880859377	11.86772918701172	3888.611816406252	807.4811401367192	-10.53260040283203	3786.721191406252	672.4531250000002	32.46213531494142	3637.573730468752	456.4649963378909	148.8260345458985	3516.714355468752	390.015808105469	161.2472534179688	4125.255371093752	1448.953857421875	168.2389068603516	4168.966308593752	1256.249267578125	177.3254089355469	3989.165283203127	1486.689208984375	338.3296508789064	4047.457275390627	1475.996704101563	-64.3254318237305	3295.388183593752	162.5820922851563	115.8464660644532	3924.548095703127	1078.168823242188	203.0247039794923	3583.554687500002	399.7130126953127	110.5386581420899	3310.572753906252	177.9434509277344	220.9093475341798	4033.165283203127	1090.424926757813	303.5039367675782	3305.833984375002	391.4012756347659	147.1110076904297	3929.316894531252	1247.579345703125	124.3416595458985	3990.673095703127	1508.520263671875	138.5175018310547	3919.112548828127	1069.783325195313	105.6430435180665	4126.767578125002	291.9788513183595	216.6289825439454	4354.997070312502	735.2307128906252	286.6636962890626	4194.188476562502	319.8714294433595	273.1343994140626	3352.225830078127	336.2967834472657	100.1885681152344	3737.387451171877	566.4075317382815	57.90418243408206	4030.825035011692	967.3376838168267	212.5058558812994	4011.893274618905	955.6578420600152	78.76566592929748	4038.137756347658	1480.040008544922	145.1901569366455	4003.458190917971	1036.863494873047	143.8039779663087	
332	1.324	4125.302734375002	1009.037841796875	234.3012237548829	4097.840820312502	992.2730102539067	31.23126792907716	4067.586181640627	1072.339233398438	1.3063383102417	4179.993164062502	880.205932617188	328.284637451172	4282.373535156252	877.1875610351567	309.0992126464845	4327.081542968752	781.354370117188	304.4096069335939	4397.066894531252	587.9094848632815	210.0771636962892	4387.810058593752	518.8726196289065	260.1868286132814	4351.202636718752	457.2586364746096	215.7010345458986	4382.890625000002	200.5686645507814	200.1571502685548	4371.576660156252	204.6480102539064	308.9798583984376	3911.673583984377	709.0157470703127	13.75192546844483	3919.123291015627	805.862915039063	-11.9381217956543	3816.545654296877	670.924987792969	30.56347656250001	3659.817138671877	462.8828125000002	150.8534851074219	3536.103271484377	401.7841491699221	162.8263092041016	4152.548828125002	1449.773803710938	169.3587341308594	4195.332031250002	1256.490356445313	178.2244567871094	4014.593505859377	1487.161987304688	337.8880310058595	4077.126464843752	1477.3505859375	-64.20729827880862	3309.895019531252	178.5632324218751	123.884147644043	3950.889648437502	1080.566040039063	200.7295074462892	3605.084960937502	405.7578735351565	114.1812896728516	3324.400146484377	199.9532775878907	227.9392242431642	4057.563964843752	1090.026245117188	302.5328674316407	3325.415283203127	408.7986755371096	142.5708160400391	3956.391601562502	1249.071533203125	122.8632583618165	4018.423583984377	1509.751342773438	138.6251983642579	3945.789306640627	1071.761108398438	103.8954772949219	4175.842285156252	272.5222778320314	211.1584777832032	4376.426757812502	730.787780761719	286.9368286132814	4241.680664062502	303.5394287109376	268.7191162109376	3371.467041015627	350.2800598144532	99.49330139160162	3766.823486328127	565.7609863281252	59.1399955749512	4056.43179924043	968.3669684389737	211.5914290422459	4038.304985871853	957.300989139665	77.55083807535169	4065.673095703127	1481.009429931641	145.416166305542	4029.955627441408	1038.409500122071	142.5393691062928	
333	1.328	4151.227050781252	1009.492309570313	234.1678466796876	4124.927734375002	993.5955200195317	30.57137870788576	4094.236083984377	1074.44140625	0.6557638049125674	4202.789062500002	877.9591674804692	328.1223449707032	4305.309082031252	873.1997680664067	311.3362426757814	4348.194824218752	776.6940307617192	304.1719360351564	4427.739257812502	582.999694824219	212.0366668701173	4420.589843750002	512.1741333007815	258.672576904297	4387.845214843752	449.1219177246096	213.4934997558595	4435.879394531252	196.3894958496095	192.3135375976564	4424.856933593752	196.0537719726564	301.0958251953126	3942.324707031252	707.9069824218752	15.82365703582764	3949.964843750002	803.7938842773442	-12.83334732055665	3847.157470703127	668.7019042968752	29.16016006469728	3682.772216796877	468.9969787597659	152.4365692138672	3556.512695312502	413.4273071289065	164.0459289550782	4179.780273437502	1450.5732421875	170.3283843994141	4221.642089843752	1256.494750976563	179.0200653076172	4040.083007812502	1487.717407226563	337.4857177734376	4107.183105468752	1478.46875	-64.21902465820315	3324.252441406252	195.9588470458986	131.8801727294922	3976.905517578127	1083.037963867188	199.7552032470704	3626.996582031252	412.0360412597659	117.3395462036133	3338.937744140627	222.7947540283204	234.6419677734376	4081.717529296877	1089.682983398438	301.5880432128907	3346.718261718752	426.4433288574221	138.4381103515626	3983.320068359377	1250.741577148438	121.4591293334962	4046.430175781252	1511.089233398438	138.2476806640626	3972.532470703127	1073.859497070313	101.7287139892579	4224.604492187502	254.081268310547	206.1983337402345	4397.055175781252	725.031188964844	287.1324157714845	4288.809570312502	287.6700744628907	264.3162841796876	3391.429199218752	364.4666137695314	98.91380310058599	3796.244873046877	564.2797851562502	60.64237213134768	4082.028885456293	969.3997136279883	210.8443126917621	4064.669471814389	958.9067053258888	76.45620735251569	4093.369140625002	1481.962158203125	145.4606895446778	4056.398193359377	1039.996322631836	141.5557856559754	
334	1.332	4177.132324218752	1010.088256835938	234.1704254150392	4151.917480468752	994.7600708007817	29.85194206237794	4120.771972656252	1076.572875976563	-0.2561780512332917	4225.255859375002	875.2360839843755	327.9335327148439	4327.976562500002	868.684936523438	313.579315185547	4368.960449218752	771.5895385742192	304.0682983398439	4455.816406250002	576.7097167968752	212.1287536621095	4452.722167968752	504.9181823730471	257.6508789062501	4423.755371093752	440.729919433594	211.4510955810548	4487.362304687502	193.152069091797	184.7577819824219	4476.954589843752	188.224105834961	293.393524169922	3973.219482421877	706.3699340820315	18.00782585144044	3980.841796875002	801.2369995117192	-12.81367206573487	3878.318847656252	666.0783691406252	28.26883125305177	3706.705322265627	474.9441528320315	153.5330657958985	3578.146240234377	424.6516723632815	164.7913665771485	4207.013183593752	1451.308471679688	171.3269042968751	4247.746093750002	1256.778198242188	179.6408843994141	4065.853271484377	1488.07763671875	337.3254699707032	4137.226074218752	1479.576538085938	-64.21889495849612	3338.267089843752	214.7449951171876	139.3717346191407	4003.002441406252	1084.737915039063	198.1299438476564	3649.487792968752	418.5723571777346	119.7644577026368	3355.060302734377	245.9843597412111	240.6642303466798	4105.631835937502	1089.296020507813	300.6013183593751	3369.852294921877	444.1210937500002	135.0057983398438	4010.145996093752	1252.2490234375	120.0320129394532	4074.533203125002	1512.450317382813	137.9364776611329	3999.466064453127	1076.512573242188	100.1197586059571	4273.062500000002	236.6215057373048	200.9157562255861	4417.391113281252	718.4285888671877	287.5140991210939	4335.480468750002	272.3323669433595	259.810272216797	3412.166259765627	378.9375915527345	98.2155380249024	3825.622314453127	563.2944335937502	61.20310974121097	4107.628512883972	970.44200467096	210.2709065135535	4090.984932732009	960.3243178278556	75.40625742337828	4121.156433105471	1482.853240966797	145.5924892425538	4082.879577636721	1041.524703979493	140.5680174827577	
